<?xml version="1.0" encoding="UTF-8"?>
<!DOCTYPE svg PUBLIC "-//W3C//DTD SVG 1.1//EN" "http://www.w3.org/Graphics/SVG/1.1/DTD/svg11.dtd">
<svg xmlns="http://www.w3.org/2000/svg" version="1.1" width="40px" height="40px" style="shape-rendering:geometricPrecision; text-rendering:geometricPrecision; image-rendering:optimizeQuality; fill-rule:evenodd; clip-rule:evenodd" xmlns:xlink="http://www.w3.org/1999/xlink">
<g><path style="opacity:0.945" fill="#7e99ce" d="M 1162.5,567.5 C 1204.14,505.677 1245.64,443.677 1287,381.5C 1304.94,355.223 1323.28,329.223 1342,303.5C 1349.36,294.914 1358.19,288.414 1368.5,284C 1387.72,279.58 1399.38,286.913 1403.5,306C 1402.7,313.904 1398.36,317.237 1390.5,316C 1385.63,313.749 1383.13,309.915 1383,304.5C 1381.53,302.848 1379.7,301.848 1377.5,301.5C 1368.81,304.68 1361.64,310.014 1356,317.5C 1289.35,412.641 1224.52,508.974 1161.5,606.5C 1217.78,532.993 1275.28,460.326 1334,388.5C 1348.33,372.167 1362.67,355.833 1377,339.5C 1387.06,328.432 1398.56,319.265 1411.5,312C 1442.89,301.053 1455.39,311.886 1449,344.5C 1446.46,353.568 1440.96,356.068 1432.5,352C 1431.3,351.097 1430.47,349.931 1430,348.5C 1430.49,341.198 1430.99,333.865 1431.5,326.5C 1428.05,326.814 1424.72,327.648 1421.5,329C 1415.32,331.919 1409.66,335.586 1404.5,340C 1384.59,360.569 1365.43,381.736 1347,403.5C 1269.07,499.384 1193.07,596.717 1119,695.5C 1118.33,696.167 1118.33,696.833 1119,697.5C 1181.23,627.6 1244.56,558.6 1309,490.5C 1339.22,459.608 1370.06,429.442 1401.5,400C 1419.42,383.739 1438.76,369.406 1459.5,357C 1470.22,351.892 1481.22,351.226 1492.5,355C 1509.25,367.763 1512.59,383.429 1502.5,402C 1505.81,401.677 1509.14,401.011 1512.5,400C 1543.58,398.077 1557.08,412.577 1553,443.5C 1551.44,450.385 1547.61,455.551 1541.5,459C 1532.02,460.186 1527.85,456.019 1529,446.5C 1535.39,440.011 1536.73,432.678 1533,424.5C 1526.12,417.856 1518.28,416.69 1509.5,421C 1503.18,423.826 1497.18,427.159 1491.5,431C 1338.66,552.126 1192.66,681.792 1053.5,820C 1156.25,741.953 1260.25,665.286 1365.5,590C 1421.47,549.706 1478.81,511.373 1537.5,475C 1544.83,470.836 1552.49,467.502 1560.5,465C 1577.42,461.525 1591.25,466.359 1602,479.5C 1608.31,491.086 1607.98,502.419 1601,513.5C 1595.07,517.781 1589.74,517.115 1585,511.5C 1584.48,505.279 1585.14,499.279 1587,493.5C 1582.14,484.534 1574.64,481.367 1564.5,484C 1553.76,488.537 1543.43,493.871 1533.5,500C 1464.74,544.771 1397.07,591.104 1330.5,639C 1236.25,706.963 1143.25,776.63 1051.5,848C 1091.98,825.25 1132.31,801.916 1172.5,778C 1295,704.251 1417.33,630.251 1539.5,556C 1558.51,544.826 1577.85,534.159 1597.5,524C 1613.31,516.115 1628.65,516.782 1643.5,526C 1656.78,539.856 1657.78,554.523 1646.5,570C 1640.7,575.045 1634.03,576.712 1626.5,575C 1625.07,574.535 1623.9,573.701 1623,572.5C 1618.97,562.863 1622.14,557.363 1632.5,556C 1636.3,548.719 1634.63,543.052 1627.5,539C 1623.57,537.675 1619.57,537.342 1615.5,538C 1607.26,541.119 1599.26,544.786 1591.5,549C 1553.17,570.829 1515.17,593.162 1477.5,616C 1332.33,705.428 1185.99,793.095 1038.5,879C 1040.55,879.325 1042.55,878.991 1044.5,878C 1188.51,823.225 1327.51,757.892 1461.5,682C 1519.16,648.838 1576.5,615.171 1633.5,581C 1644.33,576.601 1655.33,575.934 1666.5,579C 1683.66,588.17 1689.83,602.337 1685,621.5C 1679.08,636.703 1668.24,642.869 1652.5,640C 1648.21,634.318 1648.54,628.984 1653.5,624C 1667.06,620.656 1670.56,612.823 1664,600.5C 1662.42,598.959 1660.59,597.792 1658.5,597C 1653.43,596.249 1648.43,596.582 1643.5,598C 1585.19,632.824 1526.53,667.158 1467.5,701C 1338.13,774.016 1204.13,837.349 1065.5,891C 1046.91,897.807 1028.24,904.307 1009.5,910.5C 1002.72,867.2 977.716,848.7 934.5,855C 930.961,855.679 927.628,856.846 924.5,858.5C 909.602,744.006 902.269,629.006 902.5,513.5C 902.921,457.137 904.421,400.804 907,344.5C 910.528,280.446 914.528,216.446 919,152.5C 918.975,142.071 913.975,135.738 904,133.5C 891.958,136.249 887.624,143.582 891,155.5C 887.931,162.614 882.764,164.447 875.5,161C 868.852,149.642 869.352,138.475 877,127.5C 891.159,112.891 906.992,110.724 924.5,121C 932.303,128.104 936.803,136.938 938,147.5C 938.667,155.833 938.667,164.167 938,172.5C 922.637,336.897 918.637,501.563 926,666.5C 928.709,717.971 933.043,769.304 939,820.5C 951.418,634.736 965.418,449.069 981,263.5C 983.539,231.873 985.373,200.207 986.5,168.5C 987.414,159.356 985.914,150.689 982,142.5C 976.585,135.781 970.252,134.781 963,139.5C 962.362,140.609 961.862,141.775 961.5,143C 964.493,151.522 961.659,156.689 953,158.5C 947.025,157.859 943.692,154.525 943,148.5C 942.295,129.026 951.795,118.359 971.5,116.5C 988.615,118.442 999.448,127.776 1004,144.5C 1005.08,152.783 1005.58,161.117 1005.5,169.5C 1005,192.866 1003.83,216.199 1002,239.5C 992.231,363.158 982.565,486.825 973,610.5C 968.246,672.809 964.246,735.142 961,797.5C 992.213,639.89 1019.21,481.557 1042,322.5C 1047.49,283.932 1052.15,245.265 1056,206.5C 1057.2,195.185 1057.53,183.852 1057,172.5C 1055.05,162.887 1049.39,156.887 1040,154.5C 1038.11,154.796 1036.28,155.296 1034.5,156C 1032.5,159.333 1029.83,162 1026.5,164C 1014.35,164.211 1010.85,158.711 1016,147.5C 1023.69,137.415 1033.86,133.581 1046.5,136C 1061.3,140.132 1070.8,149.632 1075,164.5C 1076.54,175.116 1076.87,185.783 1076,196.5C 1068.53,273.823 1058.53,350.823 1046,427.5C 1027.17,545.823 1006.84,663.823 985,781.5C 1045.15,597.25 1095.15,410.25 1135,220.5C 1137.76,208.219 1138.1,195.885 1136,183.5C 1132.87,174.683 1126.7,171.183 1117.5,173C 1114.1,174.4 1111.26,176.567 1109,179.5C 1107.28,186.774 1102.78,189.607 1095.5,188C 1089.83,185.232 1087.99,180.732 1090,174.5C 1098.7,157.373 1112.53,150.54 1131.5,154C 1144.17,158.007 1152.01,166.507 1155,179.5C 1156.57,190.107 1156.9,200.774 1156,211.5C 1139.55,295.07 1120.55,378.07 1099,460.5C 1079.91,533.522 1059.91,606.189 1039,678.5C 1086.68,560.479 1131.01,441.146 1172,320.5C 1183.8,285.976 1192.13,250.642 1197,214.5C 1197.79,208.763 1197.46,203.097 1196,197.5C 1191.4,190.938 1185.57,189.771 1178.5,194C 1176.5,196.333 1174.5,198.667 1172.5,201C 1160.12,203.617 1155.62,198.784 1159,186.5C 1167.94,174.739 1179.77,170.239 1194.5,173C 1206.86,176.505 1214.02,184.672 1216,197.5C 1216.91,211.959 1215.91,226.293 1213,240.5C 1202.71,287.694 1189.38,334.028 1173,379.5C 1139.43,473.866 1104.1,567.533 1067,660.5C 1066.01,662.447 1065.68,664.447 1066,666.5C 1121.12,556.591 1173.79,445.591 1224,333.5C 1233.55,311.728 1242.55,289.728 1251,267.5C 1255.69,255.76 1258.53,243.593 1259.5,231C 1259.26,227.793 1258.76,224.626 1258,221.5C 1257.27,219.842 1256.11,219.342 1254.5,220C 1250.14,222.513 1246.14,225.513 1242.5,229C 1234.64,231.401 1229.64,228.567 1227.5,220.5C 1231.7,211.136 1238.7,204.636 1248.5,201C 1266.11,197.252 1275.94,204.419 1278,222.5C 1279.2,235.103 1277.87,247.436 1274,259.5C 1259.43,300.223 1243.09,340.223 1225,379.5C 1192.88,448.734 1160.55,517.734 1128,586.5C 1185.85,487.472 1242.19,387.472 1297,286.5C 1301.61,277.681 1303.94,268.348 1304,258.5C 1303.65,256.152 1302.49,254.319 1300.5,253C 1296.52,253.186 1292.52,253.186 1288.5,253C 1284.01,251.7 1282.01,248.7 1282.5,244C 1282.1,239.8 1283.76,236.8 1287.5,235C 1305.87,229.674 1317.7,236.174 1323,254.5C 1324.23,266.708 1322.23,278.375 1317,289.5C 1298.84,324.485 1280.18,359.152 1261,393.5C 1227.89,451.392 1195.06,509.392 1162.5,567.5 Z M 1121.5,725.5 C 1195.23,640.591 1271.39,557.591 1350,476.5C 1378.66,446.827 1408.83,418.994 1440.5,393C 1448.83,387.333 1457.17,381.667 1465.5,376C 1470.66,372.388 1476.33,371.054 1482.5,372C 1486.99,374.467 1489.32,378.3 1489.5,383.5C 1487.94,387.237 1486.61,391.07 1485.5,395C 1486.43,401.923 1490.43,405.257 1497.5,405C 1485.68,411.157 1474.68,418.49 1464.5,427C 1346.75,522.232 1232.41,621.732 1121.5,725.5 Z M 1162.5,567.5 C 1162.57,569.027 1161.91,570.027 1160.5,570.5C 1160.43,568.973 1161.09,567.973 1162.5,567.5 Z M 1161.5,606.5 C 1161.57,608.027 1160.91,609.027 1159.5,609.5C 1159.43,607.973 1160.09,606.973 1161.5,606.5 Z M 1117.5,698.5 C 1117.57,700.027 1116.91,701.027 1115.5,701.5C 1115.43,699.973 1116.09,698.973 1117.5,698.5 Z"/></g>
<g><path style="opacity:0.984" fill="#a7bbdd" d="M 1009.5,910.5 C 1008.37,912.129 1007.04,913.629 1005.5,915C 999.292,918.521 992.792,921.354 986,923.5C 958.666,966.163 931.833,1009.16 905.5,1052.5C 885.305,1039.9 864.972,1027.57 844.5,1015.5C 870.06,973.389 895.894,931.389 922,889.5C 922.985,887.634 923.485,885.634 923.5,883.5C 921.844,875.013 922.177,866.68 924.5,858.5C 927.628,856.846 930.961,855.679 934.5,855C 977.716,848.7 1002.72,867.2 1009.5,910.5 Z"/></g>
<g><path style="opacity:1" fill="#d1ddef" d="M 889.5,987.5 C 898.731,986.365 905.231,990.032 909,998.5C 909.696,1012.14 903.196,1018.3 889.5,1017C 879.591,1011.6 877.091,1003.77 882,993.5C 884.114,990.879 886.614,988.879 889.5,987.5 Z"/></g>
<g><path style="opacity:0.981" fill="#b18650" d="M 844.5,1015.5 C 864.972,1027.57 885.305,1039.9 905.5,1052.5C 737.678,1324.81 569.844,1597.14 402,1869.5C 382.083,1857.46 362.25,1845.29 342.5,1833C 341.483,1831.95 341.316,1830.78 342,1829.5C 509.363,1557.99 676.863,1286.66 844.5,1015.5 Z"/></g>
</svg>
